<svg width="87" height="23" viewBox="0 0 87 23" fill="none" xmlns="http://www.w3.org/2000/svg">
<path fill-rule="evenodd" clip-rule="evenodd" d="M11.8368 21.4429C11.0254 21.5761 10.214 21.6592 9.38147 21.7446C8.88418 21.7955 8.37933 21.8473 7.8624 21.9109L3.7152 9.91309V22.4215C2.4192 22.5491 1.2528 22.7193 0 22.932V0H3.456L8.1648 13.0189V0H11.8368V21.4429ZM19.008 8.424C19.7378 8.424 20.66 8.4017 21.5603 8.37993L21.5603 8.37993C22.4187 8.35918 23.2571 8.33891 23.8896 8.33891V11.9127C22.2912 11.9127 20.3904 11.9127 19.008 11.9978V17.316C19.6811 17.2754 20.3585 17.2305 21.0389 17.1854L21.0394 17.1854C22.4987 17.0887 23.9718 16.9911 25.4448 16.9331V20.3793L15.3792 21.1451V0H25.4448V3.57382H19.008V8.424ZM35.1648 3.61636H38.9232C38.9232 3.61636 38.9232 0 38.9664 0H27.7776V3.61636H31.536V20.124C32.7024 20.0815 33.9552 20.0815 35.1648 20.0815V3.61636ZM44.8416 8.16873H49.8096V11.7425H44.8416V19.8687H41.256V0H51.408V3.57382H44.8416V8.16873ZM61.0936 16.8914C59.8443 16.8191 58.5854 16.7462 57.3264 16.7204V0H53.6976V20.0815C57.024 20.1665 60.264 20.3367 63.504 20.5495V17.0182C62.7063 16.9848 61.902 16.9382 61.0936 16.8914ZM67.7973 20.8832L67.7974 20.8832L67.7975 20.8832C68.5759 20.9295 69.3664 20.9766 70.1568 21.06V0H66.5712V20.8047C66.9753 20.8342 67.3846 20.8586 67.7973 20.8832ZM81.432 10.8916L86.0544 0H82.0368L79.488 5.99891L77.112 0H73.224L77.4576 10.764L72.792 21.2302C73.3104 21.2983 73.8288 21.3527 74.3472 21.4072C75.1248 21.4889 75.9024 21.5705 76.68 21.6982L79.3584 15.6142L81.9504 22.2513C82.4345 22.3258 82.9134 22.4055 83.3906 22.485C84.2761 22.6324 85.1561 22.7789 86.0544 22.8895L81.432 10.8916Z" fill="white"/>
</svg>
