<svg width="190" height="32" viewBox="0 0 190 32" fill="none" xmlns="http://www.w3.org/2000/svg">
<path d="M59.7018 3.19998C59.264 1.7655 57.7316 0.993084 56.3087 1.43446C54.8858 1.87584 54.1197 3.42067 54.5575 4.85515L61.5625 26.5931C62.055 27.9172 63.4779 28.6896 64.846 28.3034C66.2689 27.862 67.1445 26.3724 66.7067 24.9379C66.7067 24.8827 59.7018 3.19998 59.7018 3.19998" fill="white"/>
<path d="M48.8658 6.78616C48.428 5.35168 46.8957 4.57927 45.4728 5.02065C44.0499 5.46202 43.2837 7.00685 43.7215 8.44133L50.7265 30.1793C51.2191 31.5034 52.6419 32.2758 54.0101 31.8896C55.433 31.4482 56.3086 29.9586 55.8708 28.5241C55.8708 28.4689 48.8658 6.78616 48.8658 6.78616" fill="white"/>
<path d="M68.5672 21.2414C69.9901 20.8 70.7562 19.2552 70.3184 17.8207C69.8806 16.3862 68.3483 15.6138 66.9254 16.0552L45.3085 23.0621C43.995 23.5586 43.2289 24.9931 43.6119 26.3724C44.0498 27.8069 45.5274 28.6897 46.9503 28.2483C47.0597 28.2483 68.5672 21.2414 68.5672 21.2414" fill="white"/>
<path d="M49.7961 27.3655C51.219 26.9242 53.025 26.3173 54.9404 25.6552C54.5026 24.2207 53.9006 22.4 53.2439 20.469L48.0996 22.1793L49.7961 27.3655" fill="white"/>
<path d="M60.6865 23.7792C62.6567 23.1172 64.4626 22.5654 65.8308 22.0689C65.393 20.6344 64.791 18.8137 64.1343 16.8827L58.99 18.593L60.6865 23.7792" fill="white"/>
<path d="M65.01 10.262C66.4329 9.82065 67.1991 8.27582 66.7612 6.84134C66.3234 5.40686 64.7911 4.63444 63.3682 5.07582L41.806 12.1379C40.4926 12.6344 39.7264 14.0689 40.1095 15.4482C40.5473 16.9379 42.0249 17.8206 43.4478 17.3241C43.5025 17.3241 65.01 10.262 65.01 10.262" fill="white"/>
<path d="M46.2937 16.3862C47.7166 15.9448 49.5225 15.3379 51.438 14.6758C50.7812 12.6896 50.234 10.8689 49.7414 9.48962L44.5972 11.2L46.2937 16.3862" fill="white"/>
<path d="M57.1294 12.8552C59.0995 12.1931 60.9055 11.6414 62.2737 11.1448C61.6169 9.15862 61.0697 7.33793 60.5771 5.95862L55.4329 7.66896L57.1294 12.8552" fill="white"/>
<path d="M90.4029 8.9379C91.3333 9.37928 91.4427 9.65514 90.6766 11.0896C89.9104 12.5793 89.7462 12.6345 88.7612 12.2482C87.5572 11.7517 86.0796 11.3655 85.0945 11.3655C83.5074 11.3655 82.4676 11.9172 82.4676 12.8C82.4676 15.6689 91.6069 14.1241 91.6069 20.3034C91.6069 23.3931 88.9801 25.4345 85.0398 25.4345C82.9602 25.4345 80.388 24.7172 78.6368 23.8345C77.7612 23.3931 77.7064 23.1172 78.4726 21.6276C79.1293 20.3586 79.3482 20.1931 80.2786 20.5793C81.8109 21.2413 83.6716 21.7379 84.985 21.7379C86.4626 21.7379 87.393 21.131 87.393 20.2482C87.393 17.4345 78.0895 18.7586 78.0895 12.8C78.0895 9.65514 80.7164 7.50342 84.602 7.50342C86.4626 7.66894 88.8159 8.22066 90.4029 8.9379" fill="white"/>
<path d="M97.791 1.65517V24.6069C97.791 24.9379 97.408 25.3241 96.9154 25.3241H94.5075C93.9602 25.3241 93.6318 24.9379 93.6318 24.6069V1.65517C93.6318 0.496553 93.9602 0.441381 95.7114 0.441381C97.6816 0.386208 97.791 0.551726 97.791 1.65517" fill="white"/>
<path fill-rule="evenodd" clip-rule="evenodd" d="M114.756 24.3862V14.5103C114.756 10.2069 111.856 7.66895 107.259 7.66895C105.179 7.66895 102.881 8.33101 101.239 9.43446C100.363 9.98619 100.363 10.262 101.239 11.6414C102.169 13.0207 102.333 13.0758 103.209 12.5793C104.304 11.9172 105.672 11.4758 106.821 11.4758C109.229 11.4758 110.652 12.5793 110.652 14.4V15.5586C109.503 15.062 108.08 14.7862 106.547 14.7862C102.443 14.7862 99.7612 16.9931 99.7612 20.3034C99.7612 23.3931 102.169 25.4896 105.726 25.4896C107.587 25.4896 109.448 24.7172 110.707 23.2827L110.652 24.331C110.597 24.8827 110.98 25.2689 111.527 25.2689H113.881C114.373 25.2689 114.756 24.9379 114.756 24.3862ZM106.219 22.1793C104.741 22.1793 103.756 21.4069 103.756 20.2483C103.756 18.8138 105.234 17.7103 107.423 17.7103C108.463 17.7103 109.667 17.8758 110.597 18.262V19.8069C109.667 21.2965 108.025 22.1793 106.219 22.1793Z" fill="white"/>
<path d="M131.01 8.9931C131.886 9.48965 131.886 9.76552 130.955 11.2552C130.08 12.6345 129.915 12.7448 128.93 12.2483C128.219 11.8621 127.015 11.531 126.085 11.531C123.075 11.531 121.105 13.5172 121.105 16.5517C121.105 19.6965 123.075 21.7931 126.085 21.7931C127.124 21.7931 128.438 21.4069 129.259 20.9103C130.134 20.4138 130.299 20.4138 131.229 21.7931C132.05 23.0621 132.05 23.3379 131.284 23.8897C129.97 24.8276 127.836 25.5448 125.975 25.5448C120.448 25.5448 116.726 21.9586 116.726 16.6069C116.726 11.2552 120.448 7.72414 126.03 7.72414C127.781 7.66896 129.751 8.22069 131.01 8.9931" fill="white"/>
<path d="M149.124 23.1173C149.836 24 149.562 24.3311 147.811 24.938C146.06 25.6 145.786 25.5449 145.184 24.7173L140.204 18.0414L137.96 20.1931V24.5518C137.96 24.8828 137.577 25.269 137.085 25.269H134.677C134.129 25.269 133.801 24.8828 133.801 24.5518V1.6552C133.801 0.496579 134.129 0.441406 135.881 0.441406C137.906 0.441406 137.96 0.606924 137.96 1.6552V14.6759L144.746 8.11037C145.512 7.39313 145.896 7.4483 147.264 8.33106C148.741 9.26899 148.851 9.54485 148.139 10.2621L143.105 15.2276L149.124 23.1173" fill="white"/>
</svg>
