<svg width="190" height="32" viewBox="0 0 190 32" fill="none" xmlns="http://www.w3.org/2000/svg">
<path fill-rule="evenodd" clip-rule="evenodd" d="M57.7598 27.3497H57.7598L57.7597 27.3497L57.7595 27.3497C57.2071 27.4064 56.6462 27.4638 56.0719 27.5345L51.4639 14.2036V28.1018C50.0239 28.2436 48.7279 28.4327 47.3359 28.6691V3.18909H51.1759L56.4079 17.6545V3.18909H60.4879V27.0145C59.5864 27.1625 58.6849 27.2549 57.7598 27.3497ZM71.2916 12.5001L71.2918 12.5001L71.2919 12.5001C72.2456 12.4771 73.1771 12.4545 73.8799 12.4545V16.4255C72.1039 16.4255 69.9919 16.4255 68.4559 16.52V22.4291C69.2038 22.384 69.9566 22.3341 70.7127 22.284L70.7128 22.284L70.7129 22.284L70.713 22.284H70.713H70.713H70.713H70.7131H70.7131H70.7131H70.7131C72.3346 22.1766 73.9713 22.0681 75.6079 22.0036V25.8327L64.4239 26.6836V3.18909H75.6079V7.16H68.4559V12.5491C69.2667 12.5491 70.2913 12.5243 71.2915 12.5001L71.2915 12.5001H71.2916H71.2916ZM86.4079 7.20727H90.5839C90.5839 7.20727 90.5839 3.18909 90.6319 3.18909H78.1999V7.20727H82.3759V25.5491C83.6719 25.5018 85.0639 25.5018 86.4079 25.5018V7.20727ZM97.1599 12.2655H102.68V16.2364H97.1599V25.2655H93.1759V3.18909H104.456V7.16H97.1599V12.2655ZM115.218 21.9573C113.83 21.8769 112.431 21.796 111.032 21.7673V3.18909H107V25.5018C110.696 25.5964 114.296 25.7854 117.896 26.0218V22.0982C117.01 22.061 116.116 22.0093 115.218 21.9573ZM122.666 26.3926L122.666 26.3926C123.531 26.4441 124.41 26.4964 125.288 26.5891V3.18909H121.304V26.3055C121.753 26.3382 122.208 26.3653 122.666 26.3926ZM137.816 15.2909L142.952 3.18909H138.488L135.656 9.85454L133.016 3.18909H128.696L133.4 15.1491L128.216 26.7782C128.792 26.8538 129.368 26.9143 129.944 26.9748C130.808 27.0656 131.672 27.1564 132.536 27.2982L135.512 20.5382L138.392 27.9127C138.93 27.9955 139.462 28.0841 139.992 28.1724C140.976 28.3362 141.954 28.4989 142.952 28.6218L137.816 15.2909Z" fill="white"/>
</svg>
