<svg width="87" height="19" viewBox="0 0 87 19" fill="none" xmlns="http://www.w3.org/2000/svg">
<path d="M13.5403 0.439535V10.5928C13.5403 13.9772 12.0788 15.3837 8.64 15.3837C5.20119 15.3837 3.7397 13.9772 3.7397 10.5928V0H0.429851C0.128955 0 0 0.13186 0 0.439535V10.7247C0 16.3947 3.52478 18.3726 8.64 18.3726C13.7552 18.3726 17.28 16.3947 17.28 10.7247V0H13.9701C13.7122 0 13.5403 0.13186 13.5403 0.439535" fill="white"/>
<path d="M61.5546 2.94488C61.8125 2.94488 61.9415 2.85698 62.0274 2.63721L62.9731 0.219767C63.0161 0.087907 62.9731 0 62.8442 0H49.5188C48.2722 0 47.7994 0.395581 47.7994 1.27465V17.01C47.7994 17.7572 48.1433 18.0649 49.1319 18.0649H61.5546C61.8125 18.0649 61.9415 17.977 62.0274 17.7572L62.9731 15.3398C63.0161 15.2079 62.9731 15.12 62.8442 15.12H51.4531V11.9114C51.4531 10.8126 52.0549 10.2851 53.6453 10.2851H58.5886C58.8465 10.2851 58.9755 10.1972 59.0615 9.97744L59.9642 7.64791C60.0071 7.51605 59.9642 7.42814 59.8352 7.42814H51.4101V2.94488H61.5546" fill="white"/>
<path fill-rule="evenodd" clip-rule="evenodd" d="M40.1481 4.57116C40.1481 6.28535 39.5463 7.73581 38.0848 8.52698C40.0621 9.09837 40.9648 10.9005 40.9218 13.0542C40.9218 16.6584 38.4287 18.0649 34.9469 18.0649H25.7051C24.7164 18.0649 24.3726 17.7572 24.3726 17.01V1.27465C24.3726 0.395581 24.8454 0 26.092 0H33.6573C36.9672 0 40.1481 0.571396 40.1481 4.57116ZM28.0693 2.90093H33.9152C35.8496 2.90093 36.4084 3.64814 36.4084 5.23047C36.4084 6.76884 35.8496 7.56 33.9152 7.56H28.0693V2.90093ZM34.603 15.164H28.0693V11.8674C28.0693 10.7686 28.6711 10.2412 30.2615 10.2412H34.603C36.6663 10.2412 37.2681 11.0763 37.2681 12.7026C37.2681 14.3728 36.6663 15.164 34.603 15.164Z" fill="white"/>
<path fill-rule="evenodd" clip-rule="evenodd" d="M82.1445 10.8126L86.0991 17.7572C86.1851 17.8451 86.1851 18.0649 85.8842 18.0649H82.5314C82.2835 18.0649 82.1944 17.9431 82.0734 17.7775C82.0685 17.7708 82.0635 17.764 82.0585 17.7572L78.4908 11.1642H75.2239C73.6335 11.1642 73.0317 11.6916 73.0317 12.7905V18.0649H69.8078C69.5069 18.0649 69.3779 17.933 69.3779 17.6253V1.27465C69.3779 0.395581 69.8508 0 71.0973 0H78.6627C83.0472 0 85.7123 1.18674 85.7123 5.58209C85.7123 8.96651 84.1218 10.2851 82.1445 10.8126ZM73.0317 8.39512H79.1785C81.4997 8.39512 81.9726 7.47209 81.9726 5.62605C81.9726 3.82395 81.4567 2.90093 79.1785 2.90093H73.0317V8.39512Z" fill="white"/>
</svg>
