<svg width="87" height="23" viewBox="0 0 87 23" fill="none" xmlns="http://www.w3.org/2000/svg">
<path fill-rule="evenodd" clip-rule="evenodd" d="M12.4848 1.65566C12.4848 2.54717 11.7072 3.31132 10.8 3.31132C9.8928 3.31132 9.1152 2.54717 9.1152 1.65566C9.1152 0.764151 9.8928 0 10.8 0C11.7072 0 12.4848 0.764151 12.4848 1.65566ZM10.8 4.66981C9.8064 4.66981 9.0288 5.43396 9.0288 6.41038C9.0288 7.38679 9.8064 8.15094 10.8 8.15094C11.7936 8.15094 12.5712 7.38679 12.5712 6.41038C12.5712 5.39151 11.7936 4.66981 10.8 4.66981ZM8.9856 11.0802C8.9856 10.1038 9.8064 9.29717 10.8 9.29717C11.7936 9.29717 12.6576 10.1038 12.6144 11.0802C12.6144 12.0566 11.7936 12.8632 10.8 12.8632C9.8064 12.8632 8.9856 12.0566 8.9856 11.0802ZM10.8 14.0094C9.8064 14.0094 9.0288 14.7736 9.0288 15.75C9.0288 16.7264 9.8064 17.4906 10.8 17.4906C11.7936 17.4906 12.5712 16.7264 12.5712 15.75C12.5712 14.816 11.7936 14.0094 10.8 14.0094ZM9.1152 20.4623C9.1152 19.5708 9.8928 18.8066 10.8 18.8066C11.7504 18.8066 12.4848 19.5708 12.4848 20.4623C12.4848 21.3538 11.7072 22.1179 10.8 22.1179C9.8928 22.1179 9.1152 21.3538 9.1152 20.4623ZM15.4656 4.45755C14.3856 4.45755 13.4784 5.34906 13.4784 6.41038C13.4784 7.4717 14.3856 8.36321 15.4656 8.36321C16.5456 8.36321 17.4528 7.4717 17.4528 6.41038C17.4528 5.34906 16.5456 4.45755 15.4656 4.45755ZM13.392 11.1226C13.392 9.97642 14.3424 9.08491 15.4656 9.08491C16.5888 9.08491 17.5392 9.97642 17.5392 11.1226C17.5392 12.2689 16.5888 13.1604 15.4656 13.1604C14.2992 13.1604 13.392 12.2264 13.392 11.1226ZM15.4656 13.7972C14.3856 13.7972 13.4784 14.6887 13.4784 15.75C13.4784 16.8113 14.3856 17.7028 15.4656 17.7028C16.5456 17.7028 17.4528 16.8113 17.4528 15.75C17.4528 14.6887 16.5456 13.7972 15.4656 13.7972ZM17.9712 11.0802C17.9712 9.8066 19.0512 8.83019 20.2608 8.83019C21.4704 8.83019 22.464 9.8066 22.5504 11.0802C22.5504 12.3538 21.5568 13.3302 20.2608 13.3302C18.9648 13.3302 17.9712 12.2689 17.9712 11.0802ZM6.0912 4.88208C5.2704 4.88208 4.5792 5.56132 4.5792 6.36792C4.5792 7.17453 5.2704 7.85377 6.0912 7.85377C6.912 7.85377 7.6032 7.17453 7.6032 6.36792C7.6032 5.56132 6.9552 4.88208 6.0912 4.88208ZM4.4928 11.0802C4.4928 10.1887 5.184 9.50943 6.0912 9.50943C6.9984 9.50943 7.6896 10.1887 7.6896 11.0802C7.6896 11.9717 6.9984 12.6509 6.0912 12.6509C5.184 12.6509 4.4928 11.9717 4.4928 11.0802ZM6.0912 14.2217C5.2704 14.2217 4.5792 14.9009 4.5792 15.7075C4.5792 16.5142 5.2704 17.1934 6.0912 17.1934C6.912 17.1934 7.6032 16.5142 7.6032 15.7075C7.6032 14.9009 6.9552 14.2217 6.0912 14.2217ZM0 11.1226C0 10.3585 0.6048 9.76415 1.3824 9.76415C2.16 9.76415 2.7648 10.3585 2.7648 11.1226C2.7648 11.8868 2.16 12.4811 1.3824 12.4811C0.6048 12.4811 0 11.8868 0 11.1226Z" fill="white"/>
<path d="M39.744 8.19336C39.5712 8.19336 39.4416 8.36317 39.4416 8.49053V20.25C39.4416 20.4198 39.6144 20.5471 39.744 20.5471H41.1696C41.3424 20.5471 41.472 20.3773 41.472 20.25V8.49053C41.472 8.32072 41.2992 8.19336 41.1696 8.19336H39.744V8.19336Z" fill="white"/>
<path d="M40.5216 3.22644C39.744 3.22644 39.1392 3.82078 39.1392 4.58493C39.1392 5.34908 39.744 5.94342 40.5216 5.94342C41.2992 5.94342 41.904 5.34908 41.904 4.58493C41.904 3.82078 41.256 3.22644 40.5216 3.22644Z" fill="white"/>
<path d="M70.416 8.19336C70.2432 8.19336 70.1136 8.36317 70.1136 8.49053V20.25C70.1136 20.4198 70.2864 20.5471 70.416 20.5471H71.8416C72.0144 20.5471 72.144 20.3773 72.144 20.25V8.49053C72.144 8.32072 71.9712 8.19336 71.8416 8.19336H70.416V8.19336Z" fill="white"/>
<path d="M71.1072 3.22644C70.3296 3.22644 69.7248 3.82078 69.7248 4.58493C69.7248 5.34908 70.3296 5.94342 71.1072 5.94342C71.8848 5.94342 72.4896 5.34908 72.4896 4.58493C72.4896 3.82078 71.8848 3.22644 71.1072 3.22644Z" fill="white"/>
<path fill-rule="evenodd" clip-rule="evenodd" d="M85.6936 19.2596C85.6846 19.301 85.6628 19.351 85.6098 19.4009C85.6098 19.4858 85.5198 19.5708 85.3398 19.5283L85.4088 19.6078C85.3998 19.6112 85.3918 19.6132 85.3848 19.6132H85.2498L85.5648 19.9953H85.7448L85.4088 19.6078C85.4238 19.602 85.4414 19.5923 85.4607 19.5816C85.5044 19.5574 85.5571 19.5283 85.6098 19.5283C85.6998 19.5283 85.6998 19.4434 85.6998 19.3585C85.6998 19.3236 85.6998 19.2887 85.6936 19.2596ZM85.0698 19.6132V19.4858V19.1038H85.3848C85.4748 19.1038 85.5648 19.1038 85.6098 19.1887C85.6628 19.1887 85.6846 19.2181 85.6936 19.2596C85.6998 19.2308 85.6998 19.2061 85.6998 19.1887V19.1038C85.6998 19.1038 85.6998 19.0189 85.6098 19.0189C85.6098 19.0189 85.5198 18.934 85.4298 18.934H85.2498H84.8448V19.9953H85.0248V19.6132H85.0698Z" fill="#8C98A4"/>
<path fill-rule="evenodd" clip-rule="evenodd" d="M84.2832 19.4858C84.2832 18.9764 84.7584 18.5094 85.2768 18.5094C85.8384 18.5094 86.2704 18.9339 86.2704 19.4858C86.2704 19.9952 85.7952 20.4622 85.2768 20.4622C84.7584 20.4622 84.2832 19.9952 84.2832 19.4858ZM84.3696 19.4858C84.3696 19.9952 84.7584 20.3773 85.2768 20.3773C85.752 20.3773 86.184 19.9952 86.184 19.4858C86.184 18.9764 85.7952 18.5943 85.2768 18.5943C84.7584 18.5943 84.3696 18.9764 84.3696 19.4858Z" fill="#8C98A4"/>
<path d="M51.624 10.1037C51.7968 10.1037 51.9264 9.93392 51.9264 9.80656V8.40562C51.9264 8.23581 51.7536 8.10845 51.624 8.10845H48.5568V3.60845C48.5568 3.43864 48.384 3.31128 48.2544 3.31128H46.8288C46.656 3.31128 46.5264 3.48109 46.5264 3.60845V8.10845H45.0144C44.8416 8.10845 44.712 8.27826 44.712 8.40562V9.80656C44.712 9.97637 44.8848 10.1037 45.0144 10.1037H46.5264V16.8962C46.5264 18.9764 47.952 20.3349 50.0256 20.3349H51.5376C51.7104 20.3349 51.84 20.1651 51.84 20.0377V18.6368C51.84 18.4669 51.6672 18.3396 51.5376 18.3396H50.2416C49.248 18.3396 48.5568 17.6603 48.5568 16.599V10.0613H51.624V10.1037V10.1037Z" fill="white"/>
<path d="M81.9504 10.1037C82.1232 10.1037 82.2528 9.93392 82.2528 9.80656V8.40562C82.2528 8.23581 82.08 8.10845 81.9504 8.10845H78.8832V3.60845C78.8832 3.43864 78.7104 3.31128 78.5808 3.31128H77.1552C76.9824 3.31128 76.8528 3.48109 76.8528 3.60845V8.10845H75.3408C75.168 8.10845 75.0384 8.27826 75.0384 8.40562V9.80656C75.0384 9.97637 75.2112 10.1037 75.3408 10.1037H76.8528V16.8962C76.8528 18.9764 78.2784 20.3349 80.352 20.3349H81.864C82.0368 20.3349 82.1664 20.1651 82.1664 20.0377V18.6368C82.1664 18.4669 81.9936 18.3396 81.864 18.3396H80.4816C79.488 18.3396 78.7968 17.6603 78.7968 16.599V10.0613H81.9072L81.9504 10.1037V10.1037Z" fill="white"/>
<path d="M30.672 10.1038V20.1226C30.672 20.2925 30.8448 20.4198 30.9744 20.4198H32.4C32.5728 20.4198 32.7024 20.25 32.7024 20.1226V10.1038H36.072C36.2448 10.1038 36.3744 9.93397 36.3744 9.80661V8.40567C36.3744 8.23586 36.2016 8.1085 36.072 8.1085H32.7024V5.47642C32.7024 4.4151 33.48 3.6934 34.3872 3.6934H36.072C36.2448 3.6934 36.3744 3.52359 36.3744 3.39623V1.99529C36.3744 1.82548 36.2016 1.69812 36.072 1.69812H34.4736C32.3568 1.69812 30.672 3.43869 30.672 5.43397V8.1085H29.16C28.9872 8.1085 28.8576 8.27831 28.8576 8.40567V9.80661C28.8576 9.97642 29.0304 10.1038 29.16 10.1038H30.672V10.1038Z" fill="white"/>
<path fill-rule="evenodd" clip-rule="evenodd" d="M61.1712 7.72637C62.856 7.72637 64.4544 8.40561 65.5776 9.59429C66.7008 10.783 67.3056 12.4386 67.3056 14.2641C67.3056 18.8066 64.152 20.8443 61.128 20.8443C58.0608 20.8443 54.9504 18.849 54.9504 14.2641V1.91033C54.9504 1.78297 55.08 1.61316 55.2528 1.61316H56.6784C56.808 1.61316 56.9808 1.74052 56.9808 1.91033V9.38203C57.9744 8.40561 59.5728 7.72637 61.1712 7.72637ZM56.9376 14.3066C56.9376 16.5566 58.0608 18.9339 61.128 18.9339C64.1952 18.9339 65.2752 16.5566 65.3184 14.3066C65.3184 11.5896 63.6336 9.72165 61.128 9.72165C58.6224 9.72165 56.9376 11.5471 56.9376 14.3066Z" fill="white"/>
</svg>
