<svg width="99" height="29" viewBox="0 0 99 29" fill="none" xmlns="http://www.w3.org/2000/svg">
<path d="M17.7217 2.49114C17.3277 1.20011 15.9486 0.504933 14.668 0.902174C13.3874 1.29942 12.6979 2.68976 13.0919 3.9808L19.3964 23.5449C19.8396 24.7367 21.1202 25.4318 22.3516 25.0842C23.6322 24.687 24.4202 23.3463 24.0262 22.0553C24.0262 22.0056 17.7217 2.49114 17.7217 2.49114" fill="white"/>
<path d="M7.96948 5.71868C7.57545 4.42764 6.19634 3.73247 4.91575 4.12971C3.63515 4.52695 2.9456 5.9173 3.33963 7.20833L9.6441 26.7725C10.0874 27.9642 11.368 28.6594 12.5993 28.3118C13.8799 27.9145 14.668 26.5739 14.274 25.2828C14.274 25.2332 7.96948 5.71868 7.96948 5.71868" fill="white"/>
<path d="M25.7008 18.7283C26.9814 18.3311 27.671 16.9407 27.2769 15.6497C26.8829 14.3587 25.5038 13.6635 24.2232 14.0607L4.76797 20.367C3.58588 20.8138 2.89633 22.1049 3.2411 23.3463C3.63513 24.6373 4.96498 25.4318 6.24558 25.0345C6.34409 25.0345 25.7008 18.7283 25.7008 18.7283" fill="white"/>
<path d="M8.80677 24.2401C10.0874 23.8429 11.7127 23.2967 13.4366 22.7008C13.0426 21.4098 12.5008 19.7711 11.9098 18.0332L7.27991 19.5725L8.80677 24.2401" fill="white"/>
<path d="M18.6083 21.0126C20.3814 20.4167 22.0068 19.9201 23.2381 19.4733C22.8441 18.1822 22.3023 16.5436 21.7113 14.8057L17.0814 16.345L18.6083 21.0126" fill="white"/>
<path d="M22.4993 8.84698C23.7799 8.44974 24.4695 7.0594 24.0755 5.76836C23.6814 4.47733 22.3023 3.78215 21.0217 4.1794L1.61575 10.5353C0.433659 10.9822 -0.255894 12.2732 0.0888825 13.5146C0.482912 14.8553 1.81276 15.6497 3.09336 15.2028C3.14261 15.2028 22.4993 8.84698 22.4993 8.84698" fill="white"/>
<path d="M5.65455 14.3586C6.93515 13.9614 8.56052 13.4152 10.2844 12.8193C9.69336 11.0317 9.20082 9.39311 8.75754 8.15173L4.12769 9.69104L5.65455 14.3586" fill="white"/>
<path d="M15.4068 11.1808C17.1799 10.5849 18.8053 10.0884 20.0367 9.64146C19.4456 7.85388 18.9531 6.21526 18.5098 4.97388L13.8799 6.51319L15.4068 11.1808" fill="white"/>
<path d="M45.3531 7.65517C46.1904 8.05241 46.2889 8.30069 45.5993 9.59172C44.9098 10.9324 44.762 10.9821 43.8754 10.6345C42.7919 10.1876 41.462 9.84 40.5754 9.84C39.1471 9.84 38.2113 10.3365 38.2113 11.131C38.2113 13.7131 46.4366 12.3228 46.4366 17.8841C46.4366 20.6648 44.0725 22.5021 40.5262 22.5021C38.6545 22.5021 36.3396 21.8565 34.7635 21.0621C33.9754 20.6648 33.9262 20.4165 34.6157 19.0759C35.2068 17.9338 35.4038 17.7848 36.2411 18.1324C37.6202 18.7283 39.2948 19.1752 40.4769 19.1752C41.8068 19.1752 42.6441 18.629 42.6441 17.8345C42.6441 15.3021 34.271 16.4938 34.271 11.131C34.271 8.30069 36.6351 6.36414 40.1322 6.36414C41.8068 6.5131 43.9247 7.00965 45.3531 7.65517" fill="white"/>
<path d="M52.0023 1.10074V21.7573C52.0023 22.0552 51.6575 22.4028 51.2143 22.4028H49.0471C48.5546 22.4028 48.259 22.0552 48.259 21.7573V1.10074C48.259 0.0579818 48.5546 0.00832666 50.1307 0.00832666C51.9038 -0.0413285 52.0023 0.107637 52.0023 1.10074" fill="white"/>
<path fill-rule="evenodd" clip-rule="evenodd" d="M67.271 21.5587V12.6704C67.271 8.79732 64.6605 6.51318 60.5232 6.51318C58.6516 6.51318 56.5829 7.10905 55.1053 8.10215C54.3172 8.5987 54.3172 8.84698 55.1053 10.0884C55.9426 11.3297 56.0904 11.3794 56.8784 10.9325C57.8635 10.3366 59.0949 9.93939 60.1292 9.93939C62.2963 9.93939 63.5769 10.9325 63.5769 12.5711V13.6139C62.5426 13.167 61.262 12.9187 59.8829 12.9187C56.1889 12.9187 53.7755 14.9049 53.7755 17.8842C53.7755 20.6649 55.9426 22.5518 59.1441 22.5518C60.8187 22.5518 62.4934 21.8566 63.6262 20.5656L63.5769 21.509C63.5277 22.0056 63.8725 22.3532 64.365 22.3532H66.4829C66.9262 22.3532 67.271 22.0553 67.271 21.5587ZM59.5874 19.5725C58.2575 19.5725 57.371 18.8773 57.371 17.8346C57.371 16.5435 58.7008 15.5504 60.671 15.5504C61.6068 15.5504 62.6904 15.6994 63.5277 16.047V17.4373C62.6904 18.778 61.2128 19.5725 59.5874 19.5725Z" fill="white"/>
<path d="M81.8994 7.70481C82.6874 8.15171 82.6874 8.39999 81.8501 9.74068C81.062 10.9821 80.9143 11.0814 80.0277 10.6345C79.3874 10.2869 78.3038 9.98895 77.4665 9.98895C74.7576 9.98895 72.9844 11.7765 72.9844 14.5076C72.9844 17.3379 74.7576 19.2248 77.4665 19.2248C78.4023 19.2248 79.5844 18.8772 80.3232 18.4303C81.1113 17.9834 81.2591 17.9834 82.0964 19.2248C82.8352 20.3669 82.8352 20.6152 82.1456 21.1117C80.9635 21.9558 79.0426 22.6014 77.368 22.6014C72.3934 22.6014 69.0441 19.3738 69.0441 14.5572C69.0441 9.74068 72.3934 6.56275 77.4173 6.56275C78.9934 6.51309 80.7665 7.00964 81.8994 7.70481" fill="white"/>
<path d="M98.2024 20.4166C98.8427 21.2111 98.5964 21.509 97.0203 22.0552C95.4442 22.6511 95.1979 22.6014 94.6561 21.8566L90.174 15.8483L88.1546 17.7849V21.7076C88.1546 22.0055 87.8098 22.3531 87.3665 22.3531H85.1994C84.7068 22.3531 84.4113 22.0055 84.4113 21.7076V1.10071C84.4113 0.0579559 84.7068 0.00830078 86.283 0.00830078C88.1053 0.00830078 88.1546 0.157266 88.1546 1.10071V12.8193L94.2621 6.91037C94.9516 6.26485 95.2964 6.31451 96.5277 7.10899C97.8576 7.95313 97.9561 8.2014 97.3158 8.84692L92.7845 13.3159L98.2024 20.4166" fill="white"/>
</svg>
