<svg width="87" height="29" viewBox="0 0 87 29" fill="none" xmlns="http://www.w3.org/2000/svg">
<path d="M21.1747 9.99029H11.1022V12.9603H18.2649C17.9067 17.1453 14.4149 18.9903 11.1469 18.9903C6.93886 18.9903 3.26798 15.6603 3.26798 11.0253C3.26798 6.48029 6.75979 2.97029 11.1469 2.97029C14.5492 2.97029 16.519 5.13029 16.519 5.13029L18.5782 2.97029C18.5782 2.97029 15.8922 0.000286388 11.0126 0.000286388C4.79005 -0.0447136 0 5.22029 0 10.9353C0 16.5153 4.52145 21.9603 11.1917 21.9603C17.0562 21.9603 21.3538 17.9553 21.3538 11.9703C21.3538 10.7103 21.1747 9.99029 21.1747 9.99029V9.99029Z" fill="white"/>
<path fill-rule="evenodd" clip-rule="evenodd" d="M22.2939 14.8053C22.2939 11.0253 25.2485 7.78528 29.367 7.78528C32.7693 7.78528 36.4402 10.2153 36.485 14.8953C36.485 19.0353 33.3513 21.9603 29.4566 21.9603C25.159 21.9603 22.2939 18.6753 22.2939 14.8053ZM33.3513 14.8953C33.3513 12.2853 31.4263 10.6203 29.4118 10.6203C27.1287 10.6203 25.3828 12.4203 25.4276 14.8503C25.4276 17.3703 27.1735 19.1703 29.4118 19.1703C31.4711 19.1703 33.3513 17.5053 33.3513 14.8953Z" fill="white"/>
<path fill-rule="evenodd" clip-rule="evenodd" d="M37.6937 14.8053C37.6937 11.0253 40.6483 7.78528 44.7668 7.78528C48.1691 7.78528 51.84 10.2153 51.8848 14.8953C51.8848 19.0353 48.7511 21.9603 44.8564 21.9603C40.5587 21.9603 37.6937 18.6753 37.6937 14.8053ZM48.7511 14.8953C48.7511 12.2853 46.8261 10.6203 44.8116 10.6203C42.5285 10.6203 40.7826 12.4203 40.8273 14.8503C40.8273 17.3703 42.5733 19.1703 44.8116 19.1703C46.8709 19.1703 48.7511 17.5053 48.7511 14.8953Z" fill="white"/>
<path fill-rule="evenodd" clip-rule="evenodd" d="M53.0934 14.8953C53.0934 11.1603 56.0481 7.83032 59.8532 7.83032C61.5096 7.83032 62.7631 8.46032 63.5689 9.45032V8.23532H66.5235V20.9703C66.5235 25.9653 63.6584 28.3503 59.898 28.3503C56.451 28.3503 54.526 26.2353 53.5859 24.2103L56.3167 23.0853C56.7196 23.9853 57.794 25.6053 59.9428 25.6053C62.1811 25.6053 63.6584 24.1203 63.6584 21.6903V20.2953C62.8078 21.2403 61.7782 22.0053 59.7637 22.0053C56.5405 22.0053 53.0934 19.1253 53.0934 14.8953ZM63.8823 14.9403C63.8823 12.2403 61.9573 10.6203 60.1218 10.6203C58.1521 10.6203 56.2271 12.1953 56.1824 14.9853C56.1824 17.5503 58.0626 19.2153 60.0771 19.2153C62.002 19.2153 63.8823 17.7303 63.8823 14.9403Z" fill="white"/>
<path fill-rule="evenodd" clip-rule="evenodd" d="M73.1938 14.8503C73.1938 10.6203 76.1932 7.78528 79.7745 7.78528C82.5501 7.78528 84.6541 9.67528 85.5942 11.8353L86.0866 13.0053L76.6408 16.9653C77.2228 18.0453 78.1181 19.1253 80.0879 19.1253C81.8338 19.1253 82.9082 18.1803 83.5349 17.1903L85.9971 18.8553C84.9227 20.2953 83.0425 21.9603 80.0879 21.9603C76.5513 21.9603 73.1938 19.3053 73.1938 14.8503ZM82.5053 12.0603C82.0576 11.2053 81.1623 10.5303 79.864 10.5303C77.8495 10.5303 75.8798 12.6453 76.2379 14.7153L82.5053 12.0603Z" fill="white"/>
<path d="M68.7171 21.5553H71.806V0.675293H68.7171V21.5553Z" fill="white"/>
</svg>
