<svg width="87" height="27" viewBox="0 0 87 27" fill="none" xmlns="http://www.w3.org/2000/svg">
<path fill-rule="evenodd" clip-rule="evenodd" d="M24.5935 19.0285L24.5935 19.0286C24.9804 20.0143 25.0664 20.9571 24.9374 21.9C24.6365 23.8714 23.347 25.5857 21.4556 26.3571C20.7679 26.6571 20.0371 26.7857 19.2634 26.7857C19.0485 26.7857 18.7905 26.7857 18.5756 26.7429C17.6729 26.6571 16.7702 26.3571 15.8676 25.8429C14.7929 25.2429 13.7183 24.3429 12.5147 23.0571C11.3111 24.3429 10.2795 25.2429 9.16189 25.8429C8.2592 26.3571 7.35651 26.6143 6.45383 26.7429C6.34637 26.7429 6.22816 26.7536 6.10995 26.7643C5.99174 26.775 5.87353 26.7857 5.76607 26.7857C4.99234 26.7857 4.26159 26.6571 3.57383 26.3571C1.72547 25.5857 0.349947 23.9143 0.0490518 21.9C-0.0799035 20.9143 0.0490518 19.9714 0.392932 19.0286C0.521888 18.6429 0.650843 18.3429 0.779798 18.0429C0.994723 17.5714 1.20965 17.1 1.38159 16.6714L1.42457 16.6286C3.31592 12.6 5.29323 8.52857 7.35651 4.5L7.44248 4.32857C7.65741 3.94286 7.87234 3.51429 8.08726 3.08571C8.14512 2.99506 8.20298 2.90283 8.26145 2.80962L8.26152 2.80951L8.26154 2.80947C8.50712 2.41799 8.76348 2.0093 9.07592 1.62857C9.97861 0.6 11.1822 0 12.5147 0C13.8043 0 15.0508 0.6 15.9105 1.67143C16.3404 2.14286 16.6413 2.65714 16.8992 3.12857L16.8993 3.12869L16.8993 3.12871C17.1142 3.55723 17.3291 3.98576 17.544 4.37143L17.6299 4.54286C19.7362 8.57143 21.7135 12.6429 23.5619 16.6714H23.6049C23.7768 17.1 23.9917 17.5714 24.2067 18.0429C24.3356 18.3428 24.4645 18.6856 24.5935 19.0284L24.5935 19.0284L24.5935 19.0285ZM45.3553 6.72857C45.3553 7.71429 44.5816 8.48571 43.5929 8.48571C42.6043 8.48571 41.8305 7.71429 41.8305 6.72857C41.8305 5.74286 42.6043 4.97143 43.5929 4.97143C44.6246 5.01429 45.3553 5.78571 45.3553 6.72857ZM38.1768 10.2429V10.6714C38.1768 10.6714 37.3601 9.6 35.5547 9.6C32.6317 9.6 30.3535 11.8286 30.3535 14.9143C30.3535 17.9571 32.6317 20.2286 35.5547 20.2286C37.3601 20.2286 38.1768 19.1143 38.1768 19.1143V19.5857C38.1768 19.8 38.3488 19.9714 38.5637 19.9714H40.7559V9.85714H38.5637C38.3058 9.85714 38.1768 10.0286 38.1768 10.2429ZM35.9846 17.7857C36.9732 17.7857 37.79 17.2714 38.1768 16.6714V13.0714C37.79 12.5143 36.9302 11.9571 35.9846 11.9571C34.2652 11.9571 32.9326 13.0286 32.9326 14.8714C32.9326 16.7143 34.2652 17.7857 35.9846 17.7857ZM44.8825 9.85714V19.9286H42.3034V9.85714H44.8825ZM78.2389 10.6714C78.2389 10.6714 79.0986 9.6 80.861 9.6C83.784 9.6 86.0622 11.8286 86.0622 14.8714C86.0622 17.9143 83.784 20.1857 80.861 20.1857C79.0556 20.1857 78.2389 19.0714 78.2389 19.0714V19.5429C78.2389 19.7571 78.067 19.9286 77.852 19.9286H75.6598V5.01429H78.2389V10.6714ZM80.4311 17.7429C79.4425 17.7429 78.6688 17.2286 78.2389 16.6286V13.0286C78.6258 12.4714 79.4855 11.9143 80.4311 11.9143C82.1506 11.9143 83.4831 12.9857 83.4831 14.8286C83.4831 16.6714 82.1506 17.7429 80.4311 17.7429ZM74.3273 19.9714V13.9714C74.3273 12.2571 73.9834 11.3143 73.1237 10.5857C72.35 9.94286 71.4043 9.6 70.2867 9.6C69.298 9.6 68.3093 9.9 67.5356 10.6714V10.2429C67.5356 10.0286 67.3637 9.85714 67.1488 9.85714H65.0855V19.9714H67.6646V12.9429C68.1804 12.3429 68.9971 11.9571 69.7708 11.9571C71.1894 11.9571 71.7482 12.6 71.7482 14.2714V19.9714H74.3273ZM58.8097 9.6C57.0473 9.6 56.1876 10.6714 56.1876 10.6714V5.01429H53.6085V19.9286H55.8007C56.0156 19.9286 56.1876 19.7571 56.1876 19.5429V19.0714C56.1876 19.0714 57.0043 20.1857 58.8097 20.1857C61.7326 20.1857 64.0108 17.9143 64.0108 14.8714C64.0538 11.8286 61.7756 9.6 58.8097 9.6ZM56.1876 16.6286C56.6174 17.2286 57.3911 17.7429 58.3798 17.7429C60.0992 17.7429 61.4317 16.6714 61.4317 14.8286C61.4317 12.9857 60.0992 11.9143 58.3798 11.9143C57.4341 11.9143 56.5744 12.4714 56.1876 13.0286V16.6286ZM51.4162 9.6C52.1899 9.6 52.6198 9.72857 52.6198 9.72857V12.1286C52.6198 12.1286 50.4705 11.4 49.138 12.9429V19.9714H46.5589V9.85714H48.7511C48.9661 9.85714 49.138 10.0286 49.138 10.2429V10.6714C49.5679 10.1143 50.5995 9.6 51.4162 9.6ZM12.4717 20.4C11.0102 18.5571 10.0646 16.8429 9.76368 15.4286C9.63472 14.8286 9.59174 14.2714 9.67771 13.8C9.72069 13.3714 9.89263 12.9857 10.1076 12.6857C10.6234 11.9571 11.4831 11.4857 12.4717 11.4857C13.4604 11.4857 14.3631 11.9143 14.8359 12.6857C15.0508 13.0286 15.2228 13.3714 15.2658 13.8C15.3517 14.2714 15.3088 14.8286 15.1798 15.4286C14.8789 16.8429 13.9332 18.5571 12.4717 20.4ZM20.7679 24.8143C22.1004 24.3 23.0461 23.1 23.218 21.6857C23.304 20.9571 23.218 20.3143 23.0891 19.6286C23.0425 19.4894 22.9834 19.3502 22.9185 19.1973C22.8635 19.0679 22.8043 18.9287 22.7452 18.7714C22.6377 18.5571 22.541 18.3321 22.4443 18.1071C22.3476 17.8821 22.2508 17.6571 22.1434 17.4429V17.4C20.295 13.4143 18.3177 9.34286 16.2544 5.35714L16.1685 5.18571C15.9535 4.75714 15.7386 4.32857 15.5237 3.94286C15.3088 3.51429 15.0508 3.08571 14.7499 2.74286C14.1911 2.1 13.4174 1.75714 12.6007 1.75714C11.784 1.75714 11.0102 2.1 10.4514 2.74286C10.1505 3.12857 9.89263 3.51429 9.67771 3.94286C9.46278 4.37143 9.24786 4.8 9.03293 5.18571L8.94696 5.35714C6.84069 9.34286 4.86338 13.4143 3.01502 17.4L2.97204 17.4429C2.75711 17.8714 2.54219 18.3429 2.37025 18.7714C2.24129 19.0714 2.11234 19.3714 2.02637 19.6286C1.72547 20.4 1.68248 21.0429 1.76845 21.7286C1.9404 23.1 2.88607 24.3 4.2186 24.8571C4.82039 25.0714 5.50816 25.2 6.2389 25.1143C6.92666 25.0286 7.61443 24.8143 8.30219 24.4286C9.24786 23.8714 10.2365 23.0571 11.3541 21.8143C9.59174 19.6286 8.47413 17.6143 8.08726 15.8571C7.87234 15.0429 7.82935 14.2714 7.95831 13.5857C8.08726 12.9 8.30219 12.3 8.68905 11.7429C9.50577 10.5857 10.9243 9.85714 12.4717 9.85714C14.0192 9.85714 15.4377 10.5429 16.2544 11.7429C16.6413 12.3 16.8562 12.9 16.9852 13.5857C17.0711 14.2714 17.0282 15.0429 16.8562 15.8571C16.4264 17.6143 15.3517 19.5857 13.5894 21.7714C14.707 23.0143 15.6526 23.8286 16.6413 24.3857C17.372 24.7714 18.0168 24.9857 18.7046 25.0714C19.4353 25.1571 20.1231 25.0714 20.7679 24.8143Z" fill="white"/>
</svg>
