<svg width="14" height="14" viewBox="0 0 14 14" fill="none" xmlns="http://www.w3.org/2000/svg">
<path d="M8.0625 1.09375C8.375 1.40625 8.34375 1.875 8.0625 2.1875L4.28125 5.75H13.25C13.6875 5.75 14 6.09375 14 6.5V7.5C14 7.9375 13.6875 8.25 13.25 8.25H4.28125L8.0625 11.8438C8.34375 12.1562 8.34375 12.625 8.0625 12.9375L7.375 13.625C7.0625 13.9062 6.59375 13.9062 6.3125 13.625L0.21875 7.53125C-0.0625 7.25 -0.0625 6.78125 0.21875 6.46875L6.3125 0.40625C6.59375 0.125 7.0625 0.125 7.375 0.40625L8.0625 1.09375Z" fill="white"/>
</svg>
