<svg width="24" height="24" viewBox="0 0 24 24" fill="none" xmlns="http://www.w3.org/2000/svg">
<path fill-rule="evenodd" clip-rule="evenodd" d="M11.8865 13.5929L5.05416 20.4253C4.58725 20.8922 3.8268 20.8888 3.35565 20.4176C2.8845 19.9465 2.88106 19.186 3.34796 18.7191L10.1803 11.8867L3.34794 5.05432C2.88103 4.58741 2.88448 3.82696 3.35563 3.35581C3.82678 2.88466 4.58723 2.88121 5.05414 3.34812L11.8865 10.1805L18.7191 3.34794C19.186 2.88103 19.9465 2.88448 20.4176 3.35563C20.8888 3.82678 20.8922 4.58723 20.4253 5.05414L13.5927 11.8867L20.4253 18.7193C20.8922 19.1862 20.8888 19.9466 20.4176 20.4178C19.9465 20.8889 19.186 20.8924 18.7191 20.4255L11.8865 13.5929Z" fill="#3A4C66"/>
</svg>
