<svg width="22" height="29" viewBox="0 0 22 29" fill="none" xmlns="http://www.w3.org/2000/svg">
<path d="M9.85161 0.489315C10.4849 -0.163085 11.5118 -0.163084 12.1451 0.489315C12.7785 1.14172 12.7785 2.19946 12.1451 2.85186L2.76851 12.5107C2.13518 13.1631 1.10834 13.1631 0.475002 12.5107C-0.158334 11.8583 -0.158334 10.8006 0.475002 10.1482L9.85161 0.489315Z" fill="#1565D8"/>
<path d="M9.85488 2.85187C9.22154 2.19947 9.22154 1.14172 9.85488 0.489317C10.4882 -0.163082 11.5151 -0.163082 12.1484 0.489317L21.525 10.1482C22.1583 10.8006 22.1583 11.8583 21.525 12.5107C20.8917 13.1631 19.8648 13.1631 19.2315 12.5107L9.85488 2.85187Z" fill="#1565D8"/>
<path d="M9.85161 8.48931C10.4849 7.83692 11.5118 7.83692 12.1451 8.48932C12.7785 9.14172 12.7785 10.1995 12.1451 10.8519L2.76851 20.5107C2.13518 21.1631 1.10834 21.1631 0.475002 20.5107C-0.158334 19.8583 -0.158334 18.8006 0.475002 18.1482L9.85161 8.48931Z" fill="#1565D8"/>
<path d="M9.85488 10.8519C9.22154 10.1995 9.22154 9.14172 9.85488 8.48932C10.4882 7.83692 11.5151 7.83692 12.1484 8.48932L21.525 18.1482C22.1583 18.8006 22.1583 19.8583 21.525 20.5107C20.8917 21.1631 19.8648 21.1631 19.2315 20.5107L9.85488 10.8519Z" fill="#1565D8"/>
<path d="M9.85161 16.4893C10.4849 15.8369 11.5118 15.8369 12.1451 16.4893C12.7785 17.1417 12.7785 18.1995 12.1451 18.8519L2.76851 28.5107C2.13518 29.1631 1.10834 29.1631 0.475002 28.5107C-0.158334 27.8583 -0.158334 26.8006 0.475002 26.1482L9.85161 16.4893Z" fill="#1565D8"/>
<path d="M9.85488 18.8519C9.22154 18.1995 9.22154 17.1417 9.85488 16.4893C10.4882 15.8369 11.5151 15.8369 12.1484 16.4893L21.525 26.1482C22.1583 26.8006 22.1583 27.8583 21.525 28.5107C20.8917 29.1631 19.8648 29.1631 19.2315 28.5107L9.85488 18.8519Z" fill="#1565D8"/>
</svg>
